<svg width="512" height="512" viewBox="0 0 512 512" fill="none" xmlns="http://www.w3.org/2000/svg">
<!-- Designed by LewentalDigital - LewentalDesign -->
<g clip-path="url(#clip0_1_19)">
<path fill-rule="evenodd" clip-rule="evenodd" d="M259.939 268.03C258.373 252.157 274.3 242.98 289.191 248.696L478.503 321.366C493.394 327.082 499.089 344.559 487.304 355.307C463.986 376.574 419.169 401.122 349.543 374.395C279.918 347.668 263.038 299.437 259.939 268.03Z" fill="white" stroke="black" stroke-width="16"/>
<path fill-rule="evenodd" clip-rule="evenodd" d="M243.607 251.698C259.48 253.264 268.657 237.337 262.941 222.446L190.271 33.134C184.555 18.2431 167.078 12.5479 156.33 24.3331C135.063 47.6516 110.516 92.4683 137.242 162.094C163.969 231.719 212.2 248.599 243.607 251.698Z" fill="white" stroke="black" stroke-width="16"/>
<rect x="215.72" y="256.085" width="57" height="274" rx="28.5" transform="rotate(45 215.72 256.085)" fill="#EFC201" stroke="black" stroke-width="15"/>
<rect x="136.524" y="340.938" width="49" height="97" rx="24.5" transform="rotate(45 136.524 340.938)" fill="#EFC201" stroke="black" stroke-width="8"/>
<rect x="176.122" y="301.34" width="49" height="97" rx="24.5" transform="rotate(45 176.122 301.34)" fill="#EFC201" stroke="black" stroke-width="8"/>
<rect x="298.452" y="154.969" width="83" height="230" rx="41.5" transform="rotate(45 298.452 154.969)" fill="#00D47F" stroke="black" stroke-width="16"/>
<rect x="327.443" y="107.593" width="109" height="109" rx="40" transform="rotate(45 327.443 107.593)" fill="#00D47F" stroke="black" stroke-width="14"/>
<path fill-rule="evenodd" clip-rule="evenodd" d="M238.055 279.125C242.966 263.95 261.258 262.025 272.536 273.304L410.455 411.222C421.733 422.501 419.809 440.792 404.633 445.704C375.453 455.149 326.486 458.65 275.797 407.962C225.108 357.273 228.609 308.306 238.055 279.125Z" fill="white" stroke="black" stroke-width="16"/>
<path fill-rule="evenodd" clip-rule="evenodd" d="M232.099 273.17C247.275 268.258 249.199 249.967 237.921 238.688L100.002 100.77C88.7237 89.4911 70.4323 91.4159 65.5205 106.591C56.0753 135.772 52.5743 184.739 103.263 235.428C153.952 286.116 202.919 282.615 232.099 273.17Z" fill="white" stroke="black" stroke-width="16"/>
</g>
<defs>
<clipPath id="clip0_1_19">
<rect width="512" height="512" fill="white"/>
</clipPath>
</defs>
</svg>
