<?xml version="1.0" encoding="utf-8"?>
<svg width="512px" height="512px" viewBox="0 0 512 512" version="1.1" xmlns:xlink="http://www.w3.org/1999/xlink" xmlns="http://www.w3.org/2000/svg">
  <defs>
    <path d="M512 0L512 0L512 512L0 512L0 0L512 0Z" id="path_1" />
    <path d="M87.8858 119.573C63.0103 101.151 48.5539 79.4482 56.2829 55.835C64.0119 32.2217 94.3713 17.3725 118.807 30.1289C143.243 42.8855 219.193 150.017 229.324 169.55C232.046 174.797 234.907 179.774 237.569 184.405C244.816 197.012 250.589 207.053 248.061 213.003C245.277 220.039 244.175 224.197 242.089 224.838C242.084 224.839 242.079 224.839 242.075 224.839C239.402 229.727 229.069 228.996 216.719 228.122C210.021 227.648 202.731 227.132 195.747 227.447C173.765 228.439 43.0114 216.231 19.7461 201.447C-3.51916 186.663 -5.83907 152.947 10.7461 134.447C27.3312 115.947 53.3547 117.615 81.7462 129.947C92.7023 134.706 106.265 139.835 121.073 145.682C108.647 135.812 97.4587 126.662 87.8858 119.573Z" id="path_2" />
    <path d="M87.8859 119.573C63.0104 101.151 48.554 79.4482 56.283 55.835C64.012 32.2217 94.3714 17.3725 118.807 30.1289C143.243 42.8855 219.193 150.017 229.324 169.55C232.046 174.797 234.907 179.774 237.569 184.405C244.816 197.012 250.589 207.053 248.061 213.003C245.277 220.039 244.175 224.197 242.089 224.838C242.084 224.839 242.079 224.839 242.075 224.839C239.402 229.727 229.069 228.996 216.719 228.122C210.022 227.648 202.731 227.132 195.746 227.447C173.765 228.439 43.0113 216.231 19.7461 201.447C-3.51916 186.663 -5.83906 152.947 10.7461 134.447C27.3313 115.947 53.3545 117.615 81.746 129.947C92.7022 134.705 106.265 139.835 121.073 145.682C108.647 135.812 97.4588 126.662 87.8859 119.573Z" id="path_3" />
    <clipPath id="clip_1">
      <use xlink:href="#path_1" clip-rule="evenodd" fill-rule="evenodd" />
    </clipPath>
  </defs>
  <g id="Icon 512 Copy 3">
    <path d="M512 0L512 0L512 512L0 512L0 0L512 0Z" id="Icon-512-Copy-3" fill="none" stroke="none" />
    <g id="Corpo" transform="matrix(0.70710677 0.70710677 -0.70710677 0.70710677 351.69498 81.089935)" clip-path="url(#clip_1)">
      <g id="Group-2">
        <g id="Group" transform="translate(36 194.99988)">
          <path d="M21.78 0C33.8105 0 43.5601 9.74962 43.5601 21.78L43.5601 269.476C43.5601 281.507 33.8105 291.256 21.78 291.256L21.78 291.256C9.74962 291.256 0 281.507 0 269.476L0 21.78C0 9.74962 9.74962 0 21.78 0Z" id="Rectangle-3" fill="#EFC201" stroke="#000000" stroke-width="14" />
          <path d="M21.78 27C33.8105 27 43.5601 36.7496 43.5601 48.78L43.5601 199.22C43.5601 211.25 33.8105 221 21.78 221L21.78 221C9.74962 221 0 211.25 0 199.22L0 48.78C0 36.7496 9.74962 27 21.78 27Z" id="Rectangle-3-Copy-2" fill="#EFC201" stroke="#000000" stroke-width="8" />
          <path d="M22.78 54C34.8105 54 44.5601 63.7496 44.5601 75.78L44.5601 129.22C44.5601 141.25 34.8105 151 22.78 151L22.78 151C10.7496 151 1 141.25 1 129.22L1 75.78C1 63.7496 10.7496 54 22.78 54Z" id="Rectangle-3-Copy-3" fill="#EFC201" stroke="#000000" stroke-width="8" />
        </g>
        <path d="M61.1792 54.3909C78.3023 54.3909 92.1792 68.2678 92.1792 85.3909L92.1792 248.643C92.1792 265.766 78.3023 279.643 61.1792 279.643L54.3912 279.643C37.268 279.643 23.3912 265.766 23.3912 248.643L23.3912 85.3909C23.3912 68.2678 37.268 54.3909 54.3912 54.3909L61.1792 54.3909Z" id="Rectangle" fill="#00D47F" stroke="#000000" stroke-width="14" />
        <path d="M54.5 0C84.6036 0 109 24.3964 109 54.5L109 54.5C109 84.6036 84.6036 109 54.5 109L54.5 109C24.3964 109 0 84.6036 0 54.5L0 54.5C0 24.3964 24.3964 0 54.5 0Z" id="Rectangle-2" fill="#006FCC" stroke="#000000" stroke-width="14" />
      </g>
    </g>
    <g id="Corpo" transform="matrix(0.70710677 0.70710677 -0.70710677 0.70710677 351.69498 81.089935)" clip-path="url(#clip_1)">
      <g id="Group-2">
        <g id="Group" transform="translate(36 194.99988)">
          <path d="M21.78 0C33.8105 0 43.5601 9.74962 43.5601 21.78L43.5601 269.476C43.5601 281.507 33.8105 291.256 21.78 291.256L21.78 291.256C9.74962 291.256 0 281.507 0 269.476L0 21.78C0 9.74962 9.74962 0 21.78 0Z" id="Rectangle-3" fill="#EFC201" stroke="#000000" stroke-width="14" />
          <path d="M21.78 27C33.8105 27 43.5601 36.7496 43.5601 48.78L43.5601 199.22C43.5601 211.25 33.8105 221 21.78 221L21.78 221C9.74962 221 0 211.25 0 199.22L0 48.78C0 36.7496 9.74962 27 21.78 27Z" id="Rectangle-3-Copy-2" fill="#EFC201" stroke="#000000" stroke-width="8" />
          <path d="M22.78 54C34.8105 54 44.5601 63.7496 44.5601 75.78L44.5601 129.22C44.5601 141.25 34.8105 151 22.78 151L22.78 151C10.7496 151 1 141.25 1 129.22L1 75.78C1 63.7496 10.7496 54 22.78 54Z" id="Rectangle-3-Copy-3" fill="#EFC201" stroke="#000000" stroke-width="8" />
        </g>
        <path d="M61.1792 54.3909C78.3023 54.3909 92.1792 68.2678 92.1792 85.3909L92.1792 248.643C92.1792 265.766 78.3023 279.643 61.1792 279.643L54.3912 279.643C37.268 279.643 23.3912 265.766 23.3912 248.643L23.3912 85.3909C23.3912 68.2678 37.268 54.3909 54.3912 54.3909L61.1792 54.3909Z" id="Rectangle" fill="#00D47F" stroke="#000000" stroke-width="14" />
        <path d="M54.5 0C84.6036 0 109 24.3964 109 54.5L109 54.5C109 84.6036 84.6036 109 54.5 109L54.5 109C24.3964 109 0 84.6036 0 54.5L0 54.5C0 24.3964 24.3964 0 54.5 0Z" id="Rectangle-2" fill="#006FCC" stroke="#000000" stroke-width="14" />
      </g>
    </g>
    <g id="Ali" transform="translate(27 7)" clip-path="url(#clip_1)">
      <g id="AlaSx" transform="scale(0.99999994 0.99999994)">
        <g id="Rectangle-4-Copy-2-Union">
          <use xlink:href="#path_2" fill="none" stroke="#000000" stroke-width="28" />
          <use stroke="none" fill="#F1F9FF" xlink:href="#path_2" fill-rule="evenodd" />
        </g>
      </g>
      <g id="AlaDx" transform="matrix(-0.06975659 -0.9975658 -0.9975658 0.06975659 491.7257 464.9997)">
        <g id="Rectangle-4-Copy-2-Union">
          <use xlink:href="#path_3" fill="none" stroke="#000000" stroke-width="28" />
          <use stroke="none" fill="#F1F9FF" xlink:href="#path_3" fill-rule="evenodd" />
        </g>
      </g>
    </g>
    <g id="Ali" transform="translate(27 7)" clip-path="url(#clip_1)">
      <g id="AlaSx" transform="scale(0.99999994 0.99999994)">
        <g id="Rectangle-4-Copy-2-Union">
          <use xlink:href="#path_2" fill="none" stroke="#000000" stroke-width="28" />
          <use stroke="none" fill="#F1F9FF" xlink:href="#path_2" fill-rule="evenodd" />
        </g>
      </g>
      <g id="AlaDx" transform="matrix(-0.06975659 -0.9975658 -0.9975658 0.06975659 491.7257 464.9997)">
        <g id="Rectangle-4-Copy-2-Union">
          <use xlink:href="#path_3" fill="none" stroke="#000000" stroke-width="28" />
          <use stroke="none" fill="#F1F9FF" xlink:href="#path_3" fill-rule="evenodd" />
        </g>
      </g>
    </g>
  </g>
</svg>